PathFileType  4	(X/Y/Z) /Users/kristensteudel/Documents/NMBL_Research/BertecForceProcessing/anc_files/
DataRate	CameraRate	NumFrames	NumMarkers	Units	OrigDataRate	OrigDataStartFrame	OrigNumFrames
  200.0		  200.0		    8		     46		 mm	  200.0	      1	    718
Frame#	Time	r_knee			r_shank_antsup			r_ankle			r_calc			r_5meta			r_toe			L_knee			L_shank_antsup			L_ankle			L_calc			L_5meta			L_toe			r_sh2			r_sh3			r_sh4			L_sh2			L_sh3			r_thigh1			r_thigh2			r_thigh3			r_thigh4			r_thigh5			L_thigh1			L_thigh2			L_thigh3			L_thigh4			r.ASIS			r.PSIS			L.ASIS			L.PSIS			C7			R_Shoulder			L_Shoulder			Sternum			R_humerus			R_elbow_med			R_elbow_lat			R_forearm			R_wrist_radius			R_wrist_ulna			L_humerus			L_elbow_med			L_elbow_lat			L_forearm			L_wrist_radius			L_wrist_ulna			
		X1	Y1	Z1	X2	Y2	Z2	X3	Y3	Z3	X4	Y4	Z4	X5	Y5	Z5	X6	Y6	Z6	X7	Y7	Z7	X8	Y8	Z8	X9	Y9	Z9	X10	Y10	Z10	X11	Y11	Z11	X12	Y12	Z12	X13	Y13	Z13	X14	Y14	Z14	X15	Y15	Z15	X16	Y16	Z16	X17	Y17	Z17	X18	Y18	Z18	X19	Y19	Z19	X20	Y20	Z20	X21	Y21	Z21	X22	Y22	Z22	X23	Y23	Z23	X24	Y24	Z24	X25	Y25	Z25	X26	Y26	Z26	X27	Y27	Z27	X28	Y28	Z28	X29	Y29	Z29	X30	Y30	Z30	X31	Y31	Z31	X32	Y32	Z32	X33	Y33	Z33	X34	Y34	Z34	X35	Y35	Z35	X36	Y36	Z36	X37	Y37	Z37	X38	Y38	Z38	X39	Y39	Z39	X40	Y40	Z40	X41	Y41	Z41	X42	Y42	Z42	X43	Y43	Z43	X44	Y44	Z44	X45	Y45	Z45	X46	Y46	Z46	

1	0.00000	596.812	574.939	-169.013	525.879	477.282	-162.976	269.589	264.507	-204.796	227.291	326.238	-271.352	218.292	122.880	-200.087	269.815	94.368	-249.750	1108.417	637.081	-473.294	1100.676	508.870	-469.726	951.875	224.737	-420.968	889.518	215.242	-367.024	1083.275	127.087	-436.183	1121.056	143.916	-369.382	436.746	397.836	-172.186	475.604	529.741	-148.108	385.406	462.410	-174.466	1018.394	543.292	-487.785	981.169	428.229	-465.584	794.534	712.015	-141.985	724.558	623.343	-169.101	671.987	619.027	-151.922	700.236	766.590	-108.422	636.364	674.801	-145.417	1050.897	869.777	-469.467	1131.581	755.695	-454.409	962.040	804.134	-512.933	1041.170	694.629	-477.543	922.846	989.250	-174.409	724.262	1078.952	-224.998	908.632	1024.079	-434.990	715.808	1080.417	-332.952	820.332	1559.020	-282.585	914.142	1528.141	-112.804	815.615	1544.883	-470.218	962.429	1454.143	-333.787	900.871	1307.653	-17.845	778.400	1189.355	-25.543	815.404	1221.884	53.644	964.854	1223.057	-39.973	1049.759	1219.526	-112.628	1058.581	1176.376	-84.829	649.764	1380.739	-556.353	516.607	1327.531	-479.117	541.465	1362.448	-567.809	654.636	1244.683	-572.153	756.026	1196.598	-521.411	710.021	1155.727	-561.420
2	0.00500	593.809	579.873	-169.275	522.019	483.658	-164.105	258.302	278.471	-202.699	219.336	342.952	-268.799	196.656	138.911	-199.610	249.413	105.983	-248.520	1105.252	635.091	-472.954	1106.483	506.133	-469.964	979.940	211.101	-420.051	918.992	198.076	-365.843	1117.422	122.198	-435.748	1154.298	142.319	-369.348	430.718	406.400	-171.769	473.134	537.139	-148.055	380.899	472.022	-173.045	1021.579	534.486	-487.403	992.909	417.345	-465.492	792.501	714.681	-141.317	721.161	627.195	-167.717	668.523	623.967	-151.276	699.237	771.439	-108.670	633.887	680.521	-145.984	1051.155	868.972	-470.855	1130.684	754.008	-455.638	960.679	804.063	-511.429	1037.931	693.698	-475.452	923.570	990.701	-174.261	725.477	1081.436	-225.147	910.213	1025.948	-434.944	717.284	1083.445	-333.188	820.041	1560.503	-282.605	915.251	1530.800	-113.922	814.666	1545.329	-469.254	962.346	1456.845	-334.847	903.975	1311.484	-17.348	781.195	1192.358	-23.515	818.839	1225.513	55.323	966.881	1228.616	-40.291	1050.750	1226.004	-114.430	1060.577	1183.264	-86.360	646.211	1385.519	-554.377	513.871	1331.687	-475.638	537.556	1367.575	-564.183	650.604	1249.883	-570.502	752.694	1201.531	-521.093	706.493	1160.794	-560.426
3	0.01000	592.403	583.726	-169.167	519.086	488.472	-165.108	246.091	293.398	-201.365	211.080	360.532	-267.452	176.843	158.518	-198.190	225.864	123.322	-248.464	1101.003	632.056	-472.229	1111.210	502.734	-469.875	1008.344	199.050	-419.535	949.196	182.793	-365.065	1151.101	118.501	-435.879	1187.030	141.506	-369.771	425.415	414.162	-171.476	472.180	543.693	-148.001	377.394	481.298	-171.654	1024.602	525.472	-486.647	1004.639	406.278	-464.078	791.342	717.554	-141.116	719.618	630.369	-166.621	666.684	627.814	-150.520	698.566	775.457	-108.957	632.580	684.802	-146.223	1050.820	867.417	-472.030	1128.876	751.135	-456.740	958.227	803.224	-509.037	1034.407	692.255	-473.640	924.155	992.109	-174.132	726.183	1084.288	-225.685	911.597	1027.616	-435.056	718.538	1086.167	-333.800	819.852	1562.054	-281.810	916.711	1533.251	-115.259	813.814	1547.315	-468.682	962.477	1459.465	-335.784	906.895	1314.973	-16.715	783.663	1195.311	-21.534	821.932	1228.829	56.633	968.620	1233.714	-40.473	1051.699	1231.901	-116.073	1062.028	1189.526	-87.782	642.924	1389.991	-552.238	511.757	1335.341	-472.491	534.050	1372.307	-560.891	646.885	1254.628	-568.847	750.204	1205.773	-520.630	702.964	1165.143	-559.528
4	0.01500	591.773	586.404	-168.926	516.704	491.928	-165.421	234.153	310.164	-200.730	202.564	379.034	-267.028	159.648	179.421	-196.400	207.033	143.403	-248.802	1095.826	627.818	-471.061	1114.795	499.605	-469.268	1036.733	188.309	-419.474	978.932	168.788	-364.257	1183.930	116.064	-436.384	1218.869	141.662	-370.876	420.305	421.463	-171.452	472.220	548.927	-147.788	374.775	490.310	-170.083	1026.827	516.024	-485.559	1015.505	396.254	-462.581	790.935	720.179	-141.075	719.196	632.497	-165.671	666.286	630.361	-149.643	698.298	778.319	-109.521	632.257	687.603	-146.060	1049.364	864.700	-473.396	1126.150	747.492	-457.693	954.932	801.049	-506.449	1029.752	689.465	-471.415	924.561	993.640	-173.981	726.721	1087.023	-226.060	912.262	1028.890	-435.003	719.646	1088.595	-334.448	820.047	1563.952	-282.118	917.654	1535.554	-115.965	813.039	1548.829	-468.264	962.691	1461.919	-336.591	909.645	1318.069	-16.036	785.653	1197.888	-19.918	824.490	1231.794	57.848	970.093	1238.418	-40.549	1052.404	1237.245	-117.487	1063.427	1195.249	-89.003	640.036	1393.923	-550.183	510.021	1338.312	-469.181	531.139	1376.578	-557.724	643.925	1258.968	-567.176	747.756	1209.641	-520.039	700.132	1168.927	-558.671
5	0.02000	592.188	588.083	-168.567	514.363	494.337	-165.319	221.778	329.674	-200.878	191.793	398.932	-266.573	144.548	200.591	-195.009	188.218	162.546	-247.242	1090.173	622.726	-469.485	1116.505	496.089	-468.899	1064.556	179.574	-419.867	1008.706	157.412	-363.854	1215.753	114.366	-437.367	1249.572	142.758	-371.935	414.642	428.696	-171.485	472.815	553.425	-146.805	372.510	499.626	-168.708	1028.264	505.962	-480.482	1025.121	387.153	-460.850	791.424	722.323	-141.245	719.892	634.011	-165.787	667.201	631.874	-149.107	698.432	780.281	-109.906	632.810	689.032	-146.046	1047.192	861.062	-475.044	1122.377	742.740	-458.292	950.980	797.694	-503.766	1025.411	685.974	-469.440	925.010	995.367	-173.595	727.100	1089.293	-226.447	910.675	1028.447	-434.598	720.612	1090.972	-334.868	820.270	1565.292	-282.002	918.621	1537.514	-116.598	812.288	1550.373	-467.896	962.984	1464.232	-337.364	912.239	1320.934	-15.272	787.169	1200.513	-18.695	826.781	1234.647	58.943	971.099	1242.477	-40.583	1052.826	1241.687	-118.692	1064.426	1200.116	-90.043	637.694	1397.328	-548.119	508.737	1341.002	-466.115	528.815	1380.260	-554.404	641.263	1262.654	-565.614	745.930	1212.706	-519.777	698.098	1172.099	-557.558
6	0.02500	593.280	588.932	-168.201	511.752	496.522	-164.860	213.907	348.524	-201.622	182.523	419.080	-266.728	131.540	221.841	-194.363	174.885	182.803	-246.598	1083.668	616.485	-467.766	1116.755	492.668	-468.672	1091.550	172.923	-420.165	1037.199	148.682	-362.997	1245.393	114.225	-438.750	1278.345	145.034	-374.517	408.907	436.326	-171.663	473.434	557.366	-145.463	370.492	509.503	-168.061	1027.334	495.254	-477.261	1033.454	378.847	-458.877	792.484	723.898	-141.539	721.780	635.317	-165.091	668.981	632.400	-148.959	699.113	781.318	-110.536	633.983	689.356	-146.088	1044.920	856.241	-476.844	1117.419	736.457	-457.768	946.806	793.947	-501.134	1019.671	681.032	-467.662	925.399	997.121	-173.356	727.353	1091.512	-227.064	911.391	1029.497	-434.716	721.299	1093.033	-335.444	820.850	1566.704	-281.808	919.807	1539.312	-117.269	811.658	1551.756	-467.736	963.541	1466.264	-338.098	914.723	1323.268	-14.294	789.052	1202.736	-17.227	828.741	1237.133	59.808	972.118	1245.925	-40.583	1053.114	1245.427	-119.684	1065.373	1204.073	-90.952	635.604	1400.198	-546.165	508.004	1342.838	-463.531	526.720	1383.188	-551.552	639.229	1265.719	-564.192	744.560	1215.365	-519.237	696.389	1174.679	-556.703
7	0.03000	595.029	589.075	-168.031	509.122	498.989	-164.309	201.461	368.722	-201.339	174.829	439.522	-266.813	118.870	243.926	-193.696	161.628	203.383	-244.608	1076.459	609.473	-466.017	1115.231	488.816	-468.503	1116.308	168.191	-420.333	1064.389	141.916	-362.552	1272.800	115.247	-440.785	1305.042	148.737	-377.482	402.684	445.070	-172.755	474.150	561.506	-143.954	368.947	519.942	-167.504	1025.874	483.604	-473.615	1040.535	371.280	-456.695	794.381	724.967	-142.231	724.464	635.697	-165.495	671.838	632.291	-149.074	700.397	781.511	-111.393	636.184	688.825	-146.136	1042.516	850.878	-478.175	1112.368	729.697	-457.359	942.424	789.987	-499.103	1013.938	675.854	-466.581	925.867	998.924	-172.941	727.471	1093.525	-227.045	911.294	1029.933	-434.656	721.902	1094.699	-335.912	821.487	1567.739	-282.060	920.839	1540.910	-117.868	811.226	1552.958	-467.639	963.957	1468.223	-338.684	916.629	1325.428	-13.498	789.999	1204.965	-16.426	830.281	1239.476	60.506	972.797	1248.651	-40.648	1053.316	1248.162	-120.493	1065.928	1207.212	-91.656	634.153	1402.225	-544.317	507.451	1344.099	-460.978	525.247	1385.533	-548.820	637.743	1268.104	-562.845	743.854	1217.599	-518.971	695.205	1176.705	-556.087
8	0.03500	597.652	588.717	-167.864	506.484	501.943	-163.765	193.668	388.871	-201.590	169.524	460.592	-267.279	107.487	267.069	-193.320	147.674	224.560	-246.086	1068.975	601.687	-464.204	1113.054	484.307	-468.174	1138.250	165.257	-420.413	1089.092	137.142	-362.114	1297.281	117.776	-443.053	1329.104	153.803	-380.700	397.096	454.230	-173.312	474.981	566.337	-142.969	367.800	530.884	-167.736	1023.657	472.750	-470.972	1046.397	364.399	-454.339	796.902	725.471	-142.707	727.613	635.162	-166.016	675.365	631.517	-149.472	702.432	781.219	-112.258	639.048	687.668	-146.258	1040.493	844.548	-478.984	1107.086	722.170	-456.525	938.136	786.118	-497.618	1007.529	670.144	-465.691	926.400	1000.595	-172.642	727.054	1095.126	-226.746	911.961	1030.200	-434.559	722.112	1095.899	-336.310	822.529	1568.916	-282.173	921.913	1542.140	-118.501	810.934	1553.839	-467.608	964.169	1469.925	-339.113	918.304	1327.318	-12.628	790.829	1206.939	-15.661	831.354	1241.604	61.023	973.131	1250.732	-40.662	1053.436	1250.146	-121.031	1065.724	1208.834	-92.372	633.145	1403.810	-542.826	507.375	1344.927	-458.898	524.095	1387.174	-546.504	636.880	1269.792	-561.665	743.627	1218.912	-518.515	694.716	1178.257	-555.393
